<svg xmlns="http://www.w3.org/2000/svg" style="display: none;">
    <symbol id="checkmark" viewBox="0 0 24 24">
        <path
         fill='none'
            d="M19.75 7.49072L10.493 16.7477C10.3055 16.9352 10.0512 17.0405 9.786 17.0405C9.52084 17.0405 9.26653 16.9352 9.079 16.7477L4.25 11.9187"
            stroke="#36D33B"
            stroke-width="3"
            stroke-linecap="round"
            stroke-linejoin="round"
        />
    </symbol>
    <symbol id="star" viewBox="0 0 16 16">
        <path d="M8.10326 0.703704C8.47008 -0.0395414 9.52992 -0.0395412 9.89674 0.703704L11.7063 4.37019C11.8519 4.66534 12.1335 4.8699 12.4592 4.91723L16.5054 5.50518C17.3256 5.62437 17.6531 6.63234 17.0596 7.21087L14.1318 10.0648C13.8961 10.2946 13.7885 10.6256 13.8442 10.95L14.5353 14.9798C14.6754 15.7967 13.818 16.4197 13.0844 16.034L9.46534 14.1314C9.17402 13.9782 8.82598 13.9782 8.53466 14.1314L4.91562 16.034C4.18199 16.4197 3.32456 15.7967 3.46467 14.9798L4.15585 10.95C4.21148 10.6256 4.10393 10.2946 3.86825 10.0648L0.940385 7.21087C0.346867 6.63234 0.674378 5.62437 1.4946 5.50518L5.54081 4.91723C5.86652 4.8699 6.14808 4.66534 6.29374 4.37019L8.10326 0.703704Z" fill="#F7CE45"/>
    </symbol>
    <symbol id="person" viewBox="0 0 32 32">
        <path d="M25.3333 28.0535C25.687 28.0535 26.0261 27.9131 26.2762 27.663C26.5262 27.413 26.6667 27.0738 26.6667 26.7202V25.0589C26.672 21.3175 21.368 18.3869 16 18.3869C10.632 18.3869 5.33334 21.3175 5.33334 25.0589V26.7202C5.33334 27.0738 5.47382 27.413 5.72387 27.663C5.97392 27.9131 6.31305 28.0535 6.66668 28.0535H25.3333ZM20.8053 9.52555C20.8053 10.1566 20.681 10.7815 20.4396 11.3645C20.1981 11.9475 19.8441 12.4772 19.3979 12.9234C18.9517 13.3696 18.4219 13.7236 17.8389 13.9651C17.2559 14.2066 16.6311 14.3309 16 14.3309C15.369 14.3309 14.7441 14.2066 14.1611 13.9651C13.5781 13.7236 13.0483 13.3696 12.6021 12.9234C12.1559 12.4772 11.802 11.9475 11.5605 11.3645C11.319 10.7815 11.1947 10.1566 11.1947 9.52555C11.1947 8.25109 11.701 7.02884 12.6021 6.12766C13.5033 5.22649 14.7256 4.72021 16 4.72021C17.2745 4.72021 18.4967 5.22649 19.3979 6.12766C20.2991 7.02884 20.8053 8.25109 20.8053 9.52555Z" stroke="#1D4862" stroke-width="1.5" stroke-linecap="round" stroke-linejoin="round"/>
    </symbol>

</svg>

</svg>