<svg width="212" height="32" viewBox="0 0 212 32" fill="none" xmlns="http://www.w3.org/2000/svg">
<path d="M181.929 26.0859C180.865 26.0859 179.875 25.9458 178.96 25.6657C178.063 25.3855 177.241 24.9653 176.494 24.4049C175.766 23.8259 175.112 23.1162 174.533 22.2757L176.29 19.8574C177.205 21.1648 178.399 22.1076 179.24 22.6119C180.08 23.1162 181.079 23.3683 182.237 23.3683C182.947 23.3683 183.592 23.2563 184.171 23.0321C184.75 22.808 185.207 22.4998 185.543 22.1076C185.88 21.7153 186.048 21.2671 186.048 20.7628C186.048 20.4266 185.992 20.1091 185.88 19.8102C185.768 19.5114 185.59 19.2406 185.347 18.9978C185.123 18.7549 184.824 18.5308 184.451 18.3254C184.096 18.1199 183.676 17.9425 183.19 17.793C182.704 17.6249 182.144 17.4849 181.509 17.3728C180.5 17.1673 179.623 16.8965 178.875 16.5603C178.128 16.2241 177.503 15.8039 176.998 15.2996C176.494 14.7953 176.121 14.2256 175.878 13.5906C175.635 12.9369 175.513 12.2084 175.513 11.4053C175.513 10.6208 175.682 9.8924 176.018 9.22001C176.373 8.54761 176.849 7.9686 177.447 7.48298C178.063 6.97869 178.782 6.5958 179.604 6.33431C180.426 6.05414 181.313 5.91406 182.265 5.91406C183.274 5.91406 184.199 6.04481 185.039 6.30629C185.88 6.56778 186.627 6.96001 187.28 7.48298C187.934 7.98728 188.476 8.61298 188.905 9.36009L186.776 11.4613C186.403 10.845 185.982 10.3313 185.515 9.92042C185.048 9.49083 184.535 9.17331 183.974 8.96786C183.414 8.74373 182.816 8.63166 182.181 8.63166C181.453 8.63166 180.818 8.74373 180.276 8.96786C179.735 9.19199 179.305 9.50951 178.988 9.92042C178.689 10.3126 178.539 10.7796 178.539 11.3212C178.539 11.7135 178.614 12.0777 178.763 12.4139C178.913 12.7314 179.137 13.0209 179.436 13.2824C179.753 13.5252 180.174 13.7493 180.697 13.9548C181.219 14.1416 181.845 14.3097 182.574 14.4591C183.601 14.6832 184.516 14.9727 185.319 15.3276C186.122 15.6638 186.804 16.0654 187.364 16.5323C187.925 16.9992 188.345 17.5222 188.625 18.1012C188.924 18.6802 189.073 19.3059 189.073 19.9783C189.073 21.2297 188.784 22.313 188.205 23.2282C187.626 24.1434 186.804 24.8532 185.739 25.3575C184.675 25.8431 183.405 26.0859 181.929 26.0859Z" fill="#38A9ED"/>
<path d="M159.686 25.8057V6.19418H162.712V22.892H169.864V25.8057H159.686Z" fill="#38A9ED"/>
<path d="M147.413 25.9738C145.9 25.9738 144.546 25.647 143.351 24.9933C142.155 24.3209 141.212 23.4057 140.521 22.2476C139.849 21.071 139.512 19.7448 139.512 18.2693V6.1662H142.538V18.0172C142.538 18.9697 142.762 19.8289 143.211 20.5947C143.659 21.3418 144.247 21.9395 144.976 22.3877C145.723 22.836 146.535 23.0601 147.413 23.0601C148.347 23.0601 149.187 22.836 149.934 22.3877C150.7 21.9395 151.307 21.3418 151.756 20.5947C152.204 19.8289 152.428 18.9697 152.428 18.0172V6.1662H155.314V18.2693C155.314 19.7448 154.968 21.071 154.277 22.2476C153.605 23.4057 152.671 24.3209 151.475 24.9933C150.28 25.647 148.926 25.9738 147.413 25.9738Z" fill="#38A9ED"/>
<path d="M67.2921 25.8057V6.19418H79.6473V9.1079H67.2921V22.892H79.6473V25.8057H67.2921ZM67.2921 17.2047V14.2909H76.4753V15.2996V17.2047H67.2921Z" fill="#38A9ED"/>
<path d="M83.4794 25.8057V6.19418H95.8347V9.1079H83.4794V22.892H95.8347V25.8057H83.4794ZM83.4794 17.2047V14.2909H92.6627V15.2996V17.2047H83.4794Z" fill="#38A9ED"/>
<path d="M193.211 25.8057V6.19418H205.566V9.1079H193.211V22.892H205.566V25.8057H193.211ZM193.211 17.2047V14.2909H202.394V15.2996V17.2047H193.211Z" fill="#38A9ED"/>
<path d="M47.8118 25.8057V6.19418H56.1607C57.2814 6.19418 58.3087 6.47435 59.2425 7.03468C60.1951 7.57633 60.9516 8.32344 61.5119 9.27599C62.0722 10.2099 62.3524 11.2652 62.3524 12.4419C62.3524 13.5065 62.0722 14.4964 61.5119 15.4116C60.9516 16.3268 60.2044 17.0646 59.2706 17.6249C58.3367 18.1666 57.3001 18.4374 56.1607 18.4374L50.8376 15.5237V25.8057H47.8118ZM59.4667 25.8057L54.4797 16.9525L57.5896 16.2521L63.1368 25.8337L59.4667 25.8057ZM50.8376 15.5237L56.1607 18.4374C56.7024 18.4374 55.4629 17.6343 54.4797 16.9525C54.9553 16.8454 57.7857 16.2521 58.9063 14.0108C59.1492 13.5252 59.2706 12.9928 59.2706 12.4138C59.2706 11.7601 59.1118 11.1905 58.7943 10.7048C58.4954 10.2005 58.0659 9.80831 57.5055 9.52814C56.9639 9.24798 56.3475 9.1079 55.6564 9.1079H50.8376V15.5237Z" fill="#38A9ED"/>
<path d="M99.8224 25.8057V6.19418H108.171C109.292 6.19418 110.319 6.47435 111.253 7.03468C112.206 7.57633 112.962 8.32344 113.522 9.27599C114.083 10.2099 114.363 11.2652 114.363 12.4419C114.363 13.5065 114.083 14.4964 113.522 15.4116C112.962 16.3268 112.215 17.0646 111.281 17.6249C110.347 18.1666 109.311 18.4374 108.171 18.4374L102.848 15.5237V25.8057H99.8224ZM111.477 25.8057L106.49 16.9525L109.6 16.2521L115.147 25.8337L111.477 25.8057ZM102.848 15.5237L108.171 18.4374C108.713 18.4374 107.473 17.6343 106.49 16.9525C106.966 16.8454 109.796 16.2521 110.917 14.0108C111.16 13.5252 111.281 12.9928 111.281 12.4138C111.281 11.7601 111.122 11.1905 110.805 10.7048C110.506 10.2005 110.076 9.80831 109.516 9.52814C108.974 9.24798 108.358 9.1079 107.667 9.1079H102.848V15.5237Z" fill="#38A9ED"/>
<path d="M25.1118 25.8057L32.7043 6.19418H35.7861L43.3225 25.8057H40.1006L35.618 13.9828C35.562 13.852 35.4499 13.5345 35.2818 13.0302C35.1324 12.5259 34.9549 11.9656 34.7495 11.3492C34.544 10.7329 34.3572 10.1725 34.1891 9.66822C34.021 9.14525 33.909 8.80905 33.853 8.65963L34.4973 8.63162C34.3853 8.94914 34.2452 9.35071 34.0771 9.83632C33.9277 10.3219 33.7596 10.8356 33.5728 11.3772C33.4047 11.9189 33.2366 12.4325 33.0685 12.9181C32.9004 13.3851 32.7603 13.7773 32.6482 14.0948L28.1936 25.8057H25.1118Z" fill="#38A9ED"/>
<path d="M15.7916 26.0299C14.4282 26.0299 13.1768 25.787 12.0374 25.3014C10.8981 24.8158 9.90818 24.1247 9.06769 23.2282C8.2272 22.313 7.57348 21.239 7.10654 20.0063C6.65827 18.7736 6.43414 17.4195 6.43414 15.9439C6.43414 14.5431 6.67695 13.245 7.16257 12.0496C7.66687 10.8356 8.35794 9.77096 9.23579 8.85576C10.1136 7.94055 11.1316 7.2308 12.2896 6.72651C13.4476 6.22221 14.699 5.97006 16.0438 5.97006C16.9963 5.97006 17.9209 6.11948 18.8174 6.41832C19.7326 6.69849 20.5544 7.10006 21.2829 7.62303L19.4338 10.1165C18.8921 9.74295 18.3318 9.46278 17.7528 9.27601C17.1925 9.08923 16.6228 8.99584 16.0438 8.99584C15.1286 8.99584 14.2694 9.17328 13.4663 9.52815C12.6818 9.86435 11.9907 10.3406 11.3931 10.957C10.8141 11.5734 10.3564 12.3111 10.0203 13.1703C9.68405 14.0108 9.51595 14.9353 9.51595 15.9439C9.51595 17.0085 9.67471 17.9798 9.99223 18.8576C10.3284 19.7168 10.7954 20.4546 11.3931 21.0709C11.9907 21.6873 12.7005 22.1636 13.5223 22.4998C14.3628 22.8173 15.2873 22.9761 16.2959 22.9761C16.9123 22.9761 17.5193 22.892 18.117 22.7239C18.7147 22.5558 19.275 22.313 19.798 21.9955L20.9747 24.7131C20.2463 25.124 19.4244 25.4508 18.5092 25.6937C17.6127 25.9178 16.7068 26.0299 15.7916 26.0299Z" fill="#A6E0FF"/>
<path d="M122.276 6.1662V25.7747H125.302V9.07947H130.207C130.711 9.07947 131.169 9.21953 131.58 9.49965C131.991 9.77977 132.318 10.1533 132.561 10.6201C132.822 11.087 132.953 11.6099 132.953 12.1888C132.953 12.7677 132.822 13.3 132.561 13.7855C132.318 14.2524 131.991 14.6352 131.58 14.934C131.169 15.2141 130.711 15.3542 130.207 15.3542L130.235 16.8108L130.263 18.2675C131.327 18.2675 132.29 17.9967 133.149 17.4551C134.027 16.8949 134.728 16.1572 135.251 15.2422C135.774 14.3271 136.035 13.3093 136.035 12.1888C136.035 11.0683 135.774 10.0506 135.251 9.13549C134.728 8.22043 134.027 7.50145 133.149 6.97855C132.29 6.43698 131.327 6.1662 130.263 6.1662H122.276Z" fill="#A6E0FF"/>
</svg>
