<svg width="182" height="32" viewBox="0 0 182 32" fill="none" xmlns="http://www.w3.org/2000/svg">
<path d="M156.557 24.7082C155.638 24.7082 154.783 24.5872 153.993 24.3453C153.219 24.1034 152.51 23.7406 151.865 23.2568C151.236 22.7569 150.671 22.1441 150.171 21.4184L151.688 19.3305C152.479 20.4593 153.509 21.2733 154.235 21.7087C154.961 22.1441 155.824 22.3618 156.823 22.3618C157.436 22.3618 157.993 22.265 158.492 22.0715C158.992 21.878 159.387 21.6119 159.678 21.2733C159.968 20.9346 160.113 20.5476 160.113 20.1122C160.113 19.8219 160.065 19.5478 159.968 19.2898C159.871 19.0317 159.718 18.7979 159.508 18.5883C159.315 18.3786 159.057 18.1851 158.734 18.0077C158.428 17.8303 158.065 17.6771 157.646 17.5481C157.227 17.403 156.743 17.282 156.194 17.1853C155.324 17.0079 154.566 16.7741 153.921 16.4838C153.276 16.1935 152.735 15.8307 152.3 15.3953C151.865 14.9598 151.542 14.468 151.332 13.9197C151.123 13.3553 151.018 12.7264 151.018 12.0329C151.018 11.3556 151.163 10.7267 151.453 10.1462C151.76 9.56561 152.171 9.0657 152.687 8.64642C153.219 8.21101 153.84 7.88042 154.55 7.65465C155.259 7.41276 156.025 7.29181 156.848 7.29181C157.718 7.29181 158.517 7.40469 159.242 7.63046C159.968 7.85623 160.613 8.19488 161.177 8.64642C161.742 9.08182 162.21 9.62205 162.58 10.2671L160.742 12.0813C160.42 11.5491 160.057 11.1057 159.654 10.7509C159.25 10.38 158.807 10.1058 158.323 9.92845C157.839 9.73494 157.323 9.63818 156.775 9.63818C156.146 9.63818 155.598 9.73494 155.13 9.92845C154.662 10.122 154.292 10.3961 154.017 10.7509C153.759 11.0895 153.63 11.4927 153.63 11.9604C153.63 12.299 153.695 12.6135 153.824 12.9037C153.953 13.1779 154.146 13.4279 154.404 13.6536C154.679 13.8633 155.041 14.0568 155.493 14.2342C155.944 14.3954 156.485 14.5406 157.114 14.6696C158.001 14.8631 158.791 15.113 159.484 15.4194C160.178 15.7097 160.766 16.0564 161.25 16.4596C161.734 16.8627 162.097 17.3143 162.339 17.8142C162.597 18.3141 162.726 18.8543 162.726 19.4349C162.726 20.5153 162.476 21.4507 161.976 22.2409C161.476 23.031 160.766 23.6438 159.847 24.0793C158.928 24.4985 157.831 24.7082 156.557 24.7082Z" fill="#1D4862"/>
<path d="M137.353 24.4662V7.53366H139.965V21.9505H146.14V24.4662H137.353Z" fill="#1D4862"/>
<path d="M126.756 24.6114C125.45 24.6114 124.281 24.3292 123.248 23.7648C122.216 23.1842 121.402 22.394 120.805 21.3942C120.225 20.3783 119.935 19.2333 119.935 17.9593V7.50949H122.547V17.7416C122.547 18.564 122.741 19.3059 123.128 19.967C123.515 20.6121 124.023 21.1281 124.651 21.5152C125.297 21.9022 125.998 22.0957 126.756 22.0957C127.562 22.0957 128.288 21.9022 128.933 21.5152C129.594 21.1281 130.118 20.6121 130.505 19.967C130.892 19.3059 131.086 18.564 131.086 17.7416V7.50949H133.577V17.9593C133.577 19.2333 133.279 20.3783 132.682 21.3942C132.102 22.394 131.295 23.1842 130.263 23.7648C129.231 24.3292 128.062 24.6114 126.756 24.6114Z" fill="#1D4862"/>
<path d="M57.5796 24.4662V7.53366H68.2471V10.0494H57.5796V21.9505H68.2471V24.4662H57.5796ZM57.5796 17.0401V14.5244H65.5084V15.3952V17.0401H57.5796Z" fill="#1D4862"/>
<path d="M71.5558 24.4662V7.53366H82.2233V10.0494H71.5558V21.9505H82.2233V24.4662H71.5558ZM71.5558 17.0401V14.5244H79.4846V15.3952V17.0401H71.5558Z" fill="#1D4862"/>
<path d="M166.298 24.4662V7.53366H176.965V10.0494H166.298V21.9505H176.965V24.4662H166.298ZM166.298 17.0401V14.5244H174.226V15.3952V17.0401H166.298Z" fill="#1D4862"/>
<path d="M40.7604 24.4662V7.53366H47.9688C48.9364 7.53366 49.8234 7.77556 50.6297 8.25934C51.4521 8.72701 52.1052 9.37206 52.589 10.1945C53.0728 11.0008 53.3147 11.9119 53.3147 12.9279C53.3147 13.8471 53.0728 14.7018 52.589 15.492C52.1052 16.2822 51.4602 16.9191 50.6539 17.4029C49.8475 17.8706 48.9525 18.1044 47.9688 18.1044L43.3728 15.5887V24.4662H40.7604ZM50.8232 24.4662L46.5175 16.8224L49.2025 16.2177L53.992 24.4904L50.8232 24.4662ZM43.3728 15.5887L47.9688 18.1044C48.4365 18.1044 47.3663 17.411 46.5175 16.8224C46.9281 16.7299 49.3718 16.2177 50.3394 14.2825C50.549 13.8632 50.6539 13.4036 50.6539 12.9037C50.6539 12.3393 50.5168 11.8474 50.2426 11.4282C49.9846 10.9927 49.6137 10.6541 49.1299 10.4122C48.6623 10.1703 48.1301 10.0494 47.5334 10.0494H43.3728V15.5887Z" fill="#1D4862"/>
<path d="M85.6663 24.4662V7.53366H92.8747C93.8423 7.53366 94.7292 7.77556 95.5355 8.25934C96.358 8.72701 97.0111 9.37206 97.4949 10.1945C97.9787 11.0008 98.2206 11.9119 98.2206 12.9279C98.2206 13.8471 97.9787 14.7018 97.4949 15.492C97.0111 16.2822 96.366 16.9191 95.5597 17.4029C94.7534 17.8706 93.8584 18.1044 92.8747 18.1044L88.2787 15.5887V24.4662H85.6663ZM95.729 24.4662L91.4233 16.8224L94.1084 16.2177L98.8979 24.4904L95.729 24.4662ZM88.2787 15.5887L92.8747 18.1044C93.3424 18.1044 92.2722 17.411 91.4233 16.8224C91.8339 16.7299 94.2777 16.2177 95.2453 14.2825C95.4549 13.8632 95.5597 13.4036 95.5597 12.9037C95.5597 12.3393 95.4227 11.8474 95.1485 11.4282C94.8905 10.9927 94.5196 10.6541 94.0358 10.4122C93.5681 10.1703 93.036 10.0494 92.4393 10.0494H88.2787V15.5887Z" fill="#1D4862"/>
<path d="M21.1612 24.4662L27.7165 7.53366H30.3774L36.8843 24.4662H34.1025L30.2322 14.2583C30.1838 14.1454 30.0871 13.8713 29.9419 13.4359C29.8129 13.0005 29.6597 12.5167 29.4823 11.9845C29.305 11.4523 29.1437 10.9686 28.9986 10.5331C28.8534 10.0816 28.7567 9.79134 28.7083 9.66233L29.2646 9.63814C29.1679 9.91229 29.0469 10.259 28.9018 10.6783C28.7728 11.0976 28.6277 11.541 28.4664 12.0087C28.3213 12.4764 28.1761 12.9198 28.031 13.3391C27.8858 13.7423 27.7649 14.0809 27.6681 14.3551L23.822 24.4662H21.1612Z" fill="#1D4862"/>
<path d="M13.1142 24.6598C11.937 24.6598 10.8565 24.4501 9.87279 24.0308C8.88909 23.6115 8.0344 23.0149 7.30872 22.2408C6.58303 21.4506 6.01861 20.5234 5.61546 19.459C5.22843 18.3947 5.03491 17.2255 5.03491 15.9516C5.03491 14.7421 5.24455 13.6213 5.66384 12.5892C6.09925 11.541 6.69592 10.6218 7.45385 9.83166C8.21179 9.04147 9.09067 8.42867 10.0905 7.99326C11.0903 7.55785 12.1708 7.34015 13.3319 7.34015C14.1543 7.34015 14.9526 7.46916 15.7266 7.72718C16.5168 7.96907 17.2264 8.31579 17.8553 8.76732L16.2588 10.9202C15.7911 10.5977 15.3073 10.3558 14.8074 10.1945C14.3236 10.0332 13.8318 9.9526 13.3319 9.9526C12.5417 9.9526 11.7999 10.1058 11.1065 10.4122C10.4291 10.7025 9.83248 11.1137 9.31644 11.6459C8.81652 12.178 8.42143 12.815 8.13116 13.5568C7.84088 14.2825 7.69575 15.0808 7.69575 15.9516C7.69575 16.8708 7.83282 17.7093 8.10697 18.4673C8.39724 19.2091 8.8004 19.8461 9.31644 20.3782C9.83248 20.9104 10.4453 21.3216 11.1548 21.6119C11.8805 21.886 12.6788 22.0231 13.5496 22.0231C14.0817 22.0231 14.6059 21.9505 15.1219 21.8054C15.6379 21.6603 16.1217 21.4506 16.5733 21.1765L17.5892 23.5229C16.9603 23.8776 16.2507 24.1598 15.4605 24.3695C14.6865 24.563 13.9044 24.6598 13.1142 24.6598Z" fill="#38A9ED"/>
<path d="M105.053 7.50949V24.4395H107.666V10.0248H111.9C112.335 10.0248 112.731 10.1457 113.085 10.3876C113.44 10.6294 113.723 10.9519 113.932 11.355C114.158 11.7581 114.271 12.2096 114.271 12.7094C114.271 13.2093 114.158 13.6688 113.932 14.088C113.723 14.4911 113.44 14.8216 113.085 15.0796C112.731 15.3215 112.335 15.4424 111.9 15.4424L111.924 16.7001L111.948 17.9577C112.868 17.9577 113.698 17.7239 114.44 17.2563C115.199 16.7726 115.803 16.1357 116.255 15.3457C116.707 14.5556 116.933 13.6768 116.933 12.7094C116.933 11.742 116.707 10.8632 116.255 10.0732C115.803 9.28311 115.199 8.66234 114.44 8.21088C113.698 7.74329 112.868 7.50949 111.948 7.50949H105.053Z" fill="#38A9ED"/>
</svg>
