<svg width="30" height="32" viewBox="0 0 30 32" fill="none" xmlns="http://www.w3.org/2000/svg">
<path d="M5.41427 18.9258L5.41425 18.9258L5.41801 18.9294C6.26627 19.7217 7.26284 20.3296 8.40186 20.7547C9.54504 21.1813 10.7923 21.3914 12.1383 21.3914C13.0426 21.3914 13.9379 21.2944 14.8234 21.1005L14.8234 21.1005L14.8296 21.0991C15.0819 21.0405 15.2831 20.965 15.4536 20.8687C15.6265 20.771 15.7479 20.6631 15.8453 20.5667C15.8772 20.5351 15.9059 20.5058 15.9328 20.4783C16.0599 20.3483 16.1479 20.2584 16.3594 20.154L16.6673 20.0019L16.6359 19.66L16.437 17.4942L16.3683 16.7455L15.7044 17.0984C15.2461 17.3421 14.7534 17.5294 14.2248 17.6595C13.697 17.7895 13.1612 17.8545 12.6167 17.8545C11.7083 17.8545 10.887 17.7297 10.1483 17.4861C9.42736 17.2271 8.81374 16.8643 8.30048 16.4008C7.78805 15.938 7.38684 15.3847 7.09584 14.7358C6.82424 14.0756 6.68457 13.3368 6.68457 12.5127C6.68457 11.7399 6.83127 11.0436 7.11779 10.4164L7.11781 10.4164L7.11949 10.4126C7.41171 9.75869 7.80644 9.20238 8.30341 8.73841C8.82131 8.27142 9.42134 7.90877 10.1079 7.65112L10.1079 7.65114L10.1127 7.64931C10.8135 7.37814 11.5671 7.24079 12.3775 7.24079C12.879 7.24079 13.3723 7.31152 13.8588 7.4535L13.8587 7.45352L13.8629 7.4547C14.367 7.59709 14.8576 7.81137 15.3351 8.09976L15.6998 8.32L15.9752 7.99488L17.7294 5.9235L18.1018 5.48376L17.6139 5.17707C16.878 4.71438 16.0532 4.36239 15.1436 4.11806C14.2483 3.85729 13.3258 3.7272 12.3775 3.7272C11.046 3.7272 9.79792 3.94601 8.63776 4.38842C7.48303 4.82875 6.46282 5.45074 5.58167 6.25515C4.70146 7.05871 4.00669 7.9956 3.50017 9.06335L3.50016 9.06335L3.49836 9.06722C3.00516 10.1303 2.76086 11.281 2.76086 12.5127C2.76086 13.7973 2.98395 14.9883 3.437 16.0792L3.43695 16.0792L3.43986 16.086C3.90912 17.1708 4.56774 18.1187 5.41427 18.9258Z" fill="#38A9ED" stroke="#38A9ED"/>
<path d="M13.9928 11.489H13.4928V11.989V28.8123V29.3123H13.9928H16.7965H17.2965V28.8123V14.9884H21.3395C21.716 14.9884 22.0469 15.0838 22.3446 15.2718C22.6536 15.4668 22.899 15.7255 23.0842 16.0551L23.0881 16.0622L23.0923 16.0691C23.2844 16.3867 23.3835 16.7449 23.3835 17.1561C23.3835 17.5674 23.2844 17.9368 23.0879 18.2747L23.0878 18.2746L23.0842 18.2812C22.8986 18.6115 22.6514 18.8804 22.3385 19.0925C22.0423 19.2779 21.7134 19.3719 21.3395 19.3719H20.829L20.8396 19.8823L20.8655 21.132L20.8915 22.3818L20.9017 22.8714H21.3914C22.46 22.8714 23.4393 22.6187 24.3173 22.1062L24.3173 22.1063L24.3196 22.1049C25.2011 21.584 25.9095 20.8942 26.4377 20.0384C26.9731 19.171 27.2391 18.2062 27.2391 17.1561C27.2391 16.1061 26.9731 15.1413 26.4377 14.2739C25.9086 13.4167 25.1978 12.7407 24.312 12.2511C23.4354 11.7407 22.4578 11.489 21.3914 11.489H13.9928Z" fill="#1D4862" stroke="#1D4862"/>
</svg>
