<svg width="80" height="81" viewBox="0 0 80 81" fill="none" xmlns="http://www.w3.org/2000/svg">
<g clip-path="url(#clip0_58_883)">
<path fill-rule="evenodd" clip-rule="evenodd" d="M43 0.413818C43.6678 0.413818 44.3347 0.4319 45 0.467911C49.1754 0.693932 53.2872 1.6264 57.1593 3.23028C61.6484 5.0897 65.7272 7.8151 69.163 11.2509C72.5987 14.6866 75.3241 18.7655 77.1836 23.2545C78.7874 27.1266 79.7199 31.2385 79.9459 35.4138C79.9819 36.0791 80 36.746 80 37.4138H43V0.413818ZM77.9428 35.4138C77.7189 31.5013 76.8391 27.6493 75.3358 24.0199C73.5769 19.7735 70.9988 15.9151 67.7487 12.6651C64.4987 9.41503 60.6403 6.83695 56.3939 5.07803C52.7646 3.57471 48.9125 2.69495 45 2.47101V35.4138H77.9428Z" fill="#38A9ED"/>
<path fill-rule="evenodd" clip-rule="evenodd" d="M39 2.41382V41.4138H78C78 42.082 77.9829 42.7489 77.9487 43.4138C77.5888 50.4252 75.3415 57.2231 71.4273 63.0811C67.142 69.4946 61.051 74.4933 53.9247 77.4451C46.7984 80.3969 38.9568 81.1693 31.3915 79.6644C23.8262 78.1596 16.8771 74.4452 11.4229 68.991C5.9686 63.5367 2.25422 56.5876 0.749392 49.0223C-0.755432 41.4571 0.0168982 33.6155 2.96872 26.4892C5.92053 19.3628 10.9193 13.2719 17.3328 8.9865C23.1907 5.07234 29.9887 2.82508 37 2.46512C37.665 2.43098 38.3318 2.41382 39 2.41382ZM37 43.4138V4.4679C30.3845 4.82595 23.9729 6.9551 18.4439 10.6494C12.3593 14.7151 7.61692 20.4937 4.81647 27.2545C2.01603 34.0154 1.28331 41.4549 2.71096 48.6322C4.13862 55.8095 7.66252 62.4022 12.8371 67.5768C18.0116 72.7513 24.6044 76.2752 31.7817 77.7029C38.959 79.1305 46.3984 78.3978 53.1593 75.5974C59.9202 72.7969 65.6988 68.0545 69.7644 61.9699C73.4587 56.4409 75.5879 50.0293 75.9459 43.4138H37Z" fill="#38A9ED"/>
</g>
<defs>
<clipPath id="clip0_58_883">
<rect width="80" height="80" fill="white" transform="translate(0 0.413818)"/>
</clipPath>
</defs>
</svg>
