<svg width="80" height="81" viewBox="0 0 80 81" fill="none" xmlns="http://www.w3.org/2000/svg">
<path fill-rule="evenodd" clip-rule="evenodd" d="M37 5.41382C22.6406 5.41382 11 17.0544 11 31.4138V32.9259C7.50442 34.1614 5 37.4952 5 41.4138V45.4138C5 50.3844 9.02944 54.4138 14 54.4138H16.3074C18.6825 61.4505 24.1045 67.0837 31.0025 69.7455C31.0008 69.8014 31 69.8575 31 69.9138C31 72.9514 33.4624 75.4138 36.5 75.4138H43.5C46.5376 75.4138 49 72.9514 49 69.9138C49 66.8763 46.5376 64.4138 43.5 64.4138H36.5C34.2243 64.4138 32.2715 65.7959 31.435 67.7664C22.973 64.369 17 56.0877 17 46.4138V40.4138C23.7334 40.4138 29.9462 38.8858 34.8571 36.305C38.9296 34.1648 42.1596 31.2695 43.9997 27.8727C47.1317 33.6599 54.3015 38.0082 63 39.6694V46.4138C63 54.1086 59.2223 60.921 53.416 65.0979L54.584 66.7214C58.7811 63.7021 62.0053 59.412 63.6924 54.4138H66C70.9706 54.4138 75 50.3844 75 45.4138V41.4138C75 37.4952 72.4956 34.1614 69 32.9259V31.4138C69 17.0544 57.3594 5.41382 43 5.41382H37ZM67 32.4687V31.4138C67 18.159 56.2548 7.41382 43 7.41382H37C23.7452 7.41382 13 18.159 13 31.4138V32.4687C13.3283 32.4325 13.662 32.4138 14 32.4138H15.0788C16.0977 19.5418 26.8661 9.41382 40 9.41382C53.1339 9.41382 63.9023 19.5418 64.9212 32.4138H66C66.338 32.4138 66.6717 32.4325 67 32.4687ZM14 34.4138L15 34.4138V46.4138C15 48.4822 15.2512 50.4918 15.7246 52.4138H14C10.134 52.4138 7 49.2798 7 45.4138V41.4138C7 37.5478 10.134 34.4138 14 34.4138ZM63 34.4138C63 21.7113 52.7025 11.4138 40 11.4138C27.2975 11.4138 17 21.7113 17 34.4138V38.4138C23.4426 38.4138 29.331 36.9498 33.9267 34.5346C38.5338 32.1134 41.7656 28.7811 43.0559 25.0843L44 22.3791L44.9441 25.0843C46.9721 30.8948 53.8133 35.7842 63 37.6315V34.4138ZM65 46.4138C65 48.4821 64.7488 50.4917 64.2752 52.4138H66C69.866 52.4138 73 49.2798 73 45.4138V41.4138C73 37.5478 69.866 34.4138 66 34.4138H65V46.4138ZM36.5 66.4138C34.567 66.4138 33 67.9808 33 69.9138C33 71.8468 34.567 73.4138 36.5 73.4138H43.5C45.433 73.4138 47 71.8468 47 69.9138C47 67.9808 45.433 66.4138 43.5 66.4138H36.5Z" fill="#38A9ED"/>
<path d="M37 43.4138C37 44.5184 36.1046 45.4138 35 45.4138C33.8954 45.4138 33 44.5184 33 43.4138C33 42.3092 33.8954 41.4138 35 41.4138C36.1046 41.4138 37 42.3092 37 43.4138Z" fill="#38A9ED"/>
<path d="M40.0001 53.4138C42.5898 53.4138 44.8524 52.008 46.0642 49.9131L47.7954 50.9145C46.2408 53.602 43.3326 55.4138 40.0001 55.4138C36.6675 55.4138 33.7593 53.602 32.2047 50.9145L33.9359 49.9131C35.1478 52.008 37.4103 53.4138 40.0001 53.4138Z" fill="#38A9ED"/>
<path d="M45 45.4138C46.1046 45.4138 47 44.5184 47 43.4138C47 42.3092 46.1046 41.4138 45 41.4138C43.8954 41.4138 43 42.3092 43 43.4138C43 44.5184 43.8954 45.4138 45 45.4138Z" fill="#38A9ED"/>
</svg>
