<svg width="80" height="81" viewBox="0 0 80 81" fill="none" xmlns="http://www.w3.org/2000/svg">
<path fill-rule="evenodd" clip-rule="evenodd" d="M0 21.4138C0 18.1001 2.68629 15.4138 6 15.4138H10V17.8786L15.1973 21.3435L32.5486 17.4C35.5183 16.7251 38.6337 17.4402 41.0118 19.3426L41.0787 19.3962L46.172 18.7595C48.131 18.5147 50.1187 18.8551 51.8845 19.738L61.0925 24.342L70 21.6698V15.4138H74C77.3137 15.4138 80 18.1001 80 21.4138V48.4138C80 51.7275 77.3137 54.4138 74 54.4138H70V44.7395L65.9088 45.9085L66.7071 46.7067C68.2022 48.2018 68.2022 50.6258 66.7071 52.1209C66.12 52.708 65.3897 53.0646 64.6286 53.1906C65.0774 54.5251 64.7702 56.0578 63.7071 57.1209C62.9149 57.9131 61.8619 58.2856 60.8244 58.2382C60.8718 59.2757 60.4993 60.3287 59.7071 61.1209C58.644 62.184 57.1113 62.4912 55.7768 62.0425C55.6507 62.8035 55.2942 63.5338 54.7071 64.1209C53.212 65.616 50.788 65.616 49.2929 64.1209L48.7152 63.5433L40.9515 65.8724C39.6246 66.2705 38.192 66.1002 36.9954 65.4022L32.9271 63.029C31.0933 63.2275 29.2494 62.6939 27.8015 61.5357L24.8753 59.1947L24.913 59.1476C22.33 59.3409 19.8159 58.0852 18.4314 55.8353L16.8865 53.3249C14.7528 52.69 12.9373 51.1395 12.0153 48.9881C11.6296 48.0882 11.6854 47.1154 12.0801 46.3044C11.4543 46.2216 10.8344 46.0794 10.2287 45.8775L10 45.8012V54.4138H6C2.68629 54.4138 0 51.7275 0 48.4138V21.4138ZM6 17.4138H8V52.4138H6C3.79086 52.4138 2 50.623 2 48.4138V21.4138C2 19.2047 3.79086 17.4138 6 17.4138ZM36.0544 62.5378L38.0031 63.6746C38.7211 64.0934 39.5807 64.1956 40.3768 63.9567L47.1182 61.9343C45.8003 60.4305 45.8585 58.1411 47.2929 56.7067C47.88 56.1196 48.6103 55.7631 49.3714 55.6371C48.9226 54.3026 49.2298 52.7698 50.2929 51.7067C50.88 51.1196 51.6103 50.7631 52.3714 50.6371C51.9226 49.3026 52.2298 47.7698 53.2929 46.7067C54.0851 45.9145 55.1381 45.5421 56.1756 45.5894C56.1282 44.5519 56.5007 43.4989 57.2929 42.7067C58.788 41.2116 61.212 41.2116 62.7071 42.7067L64.291 44.2906L70 42.6595V23.7578L60.9075 26.4856L50.9901 21.5269C49.5774 20.8206 47.9873 20.5482 46.4201 20.7441L43.2577 21.1394L47.9291 24.8765L50.1167 39.0957L48.4406 39.6544C45.0421 40.7872 41.3368 39.1714 39.8544 35.9102L37.418 30.55L32.3086 31.5719C29.4118 32.1513 26.4072 31.4202 24.1004 29.5748L22.3753 28.1947L23.6247 26.6329L25.3498 28.0131C27.1952 29.4894 29.5989 30.0742 31.9163 29.6108L38.582 28.2776L41.6752 35.0826C42.734 37.412 45.3807 38.5662 47.8082 37.757L47.8833 37.7319L46.0709 25.9512L39.7624 20.9044C37.8599 19.3824 35.3676 18.8103 32.9919 19.3503L14.8027 23.4842L10 20.2823V43.6931L10.8611 43.9801C12.3668 44.482 13.983 44.5233 15.5048 44.1063L16.165 43.8716L16.1723 43.8921L28.6878 39.3993C30.9259 38.5959 32.6906 36.8384 33.5033 34.6037L34.0602 33.0721L35.9398 33.7556L35.3828 35.2872C34.367 38.0806 32.1612 40.2774 29.3636 41.2817L16.7696 45.8026C16.5513 45.881 16.3308 45.9515 16.1088 46.0142L14.5701 46.5613C13.903 46.7985 13.5747 47.5495 13.8536 48.2002C14.8846 50.606 17.4261 51.9957 20.0079 51.5654L26.7797 50.4367L33.7253 48.4523L34.2747 50.3753L27.2203 52.3909L20.3367 53.5382C20.0322 53.5889 19.728 53.6209 19.4257 53.635L20.1347 54.7871C21.2425 56.5874 23.3627 57.4964 25.4305 57.0578L37.7925 54.4356L38.2075 56.3921L27.431 58.678L29.0509 59.9739C30.1515 60.8544 31.5726 61.2295 32.9644 61.0068L42.842 59.4264L43.158 61.4013L36.0544 62.5378ZM74 17.4138H72V52.4138H74C76.2091 52.4138 78 50.623 78 48.4138V21.4138C78 19.2047 76.2091 17.4138 74 17.4138ZM58.7058 46.7054L62.7071 50.7067C63.4212 51.4208 64.5788 51.4208 65.2929 50.7067C66.0069 49.9927 66.0069 48.835 65.2929 48.1209L61.2929 44.1209C60.5788 43.4069 59.4212 43.4069 58.7071 44.1209C57.9935 44.8345 57.9931 45.9913 58.7058 46.7054ZM57.2929 48.1209C56.5788 47.4069 55.4212 47.4069 54.7071 48.1209C53.9931 48.835 53.9931 49.9927 54.7071 50.7067L59.7071 55.7067C60.4212 56.4208 61.5788 56.4208 62.2929 55.7067C63.0069 54.9927 63.0069 53.835 62.2929 53.1209L57.2929 48.1209ZM51.7071 55.7067C50.9931 54.9927 50.9931 53.835 51.7071 53.1209C52.4212 52.4069 53.5788 52.4069 54.2929 53.1209L58.2947 57.1228C59.0069 57.837 59.0063 58.9933 58.2929 59.7067C57.5788 60.4208 56.4212 60.4208 55.7071 59.7067L51.7071 55.7067ZM48.7071 58.1209C49.4212 57.4069 50.5788 57.4069 51.2929 58.1209L53.2929 60.1209C54.0069 60.835 54.0069 61.9927 53.2929 62.7067C52.5788 63.4208 51.4212 63.4208 50.7071 62.7067L48.7071 60.7067C47.9931 59.9927 47.9931 58.835 48.7071 58.1209Z" fill="#38A9ED"/>
</svg>
