<svg width="80" height="80" viewBox="0 0 80 80" fill="none" xmlns="http://www.w3.org/2000/svg">
<g clip-path="url(#clip0_56_178)">
<path d="M78.4461 71.6727L78.4462 71.6728C79.3523 72.5773 79.85 73.7804 79.85 75.0594C79.85 77.7017 77.7017 79.85 75.0594 79.85C73.7804 79.85 72.5786 79.3523 71.6724 78.4474L64.6609 71.4359L64.5671 71.3422L64.4626 71.4238C57.7047 76.6969 49.2168 79.85 40 79.85C18.0274 79.85 0.15 61.9726 0.15 40C0.15 18.0274 18.0274 0.15 40 0.15C61.9726 0.15 79.85 18.0274 79.85 40C79.85 49.2168 76.6969 57.7047 71.4238 64.4626L71.3422 64.5671L71.4359 64.6609L78.4461 71.6727ZM70.6172 61.4693L70.7411 61.5605L70.8291 61.4343C74.8411 55.6822 77.2821 48.7639 77.5372 41.2955L77.5425 41.1404H77.3873H61.8918H61.7453L61.7418 41.2867C61.6426 45.3916 61.0766 49.3754 60.04 53.1592L60.017 53.2433L60.0786 53.3049L65.3224 58.5487L65.3429 58.5692L65.3697 58.5806C67.9244 59.6689 69.6162 60.733 70.6172 61.4693ZM77.3871 38.8599H77.5423L77.537 38.7048C77.2818 31.2388 74.8422 24.3218 70.8326 18.5712L70.7446 18.4449L70.6207 18.5361C68.9619 19.7564 65.3821 21.8801 59.1456 23.4948L58.9869 23.5359L59.0418 23.6903C60.5888 28.0389 61.6165 33.0382 61.7545 38.7116V38.8599H61.9045H77.3871ZM51.0665 44.1312L51.0055 44.2318L51.0887 44.315L57.9531 51.1797L58.1429 51.3695L58.2051 51.1084C58.9561 47.957 59.3754 44.6706 59.4607 41.2941L59.4646 41.1404H59.3108H52.6734H52.5724L52.5344 41.234C52.1249 42.2435 51.6269 43.2067 51.0665 44.1312ZM52.4749 49.1385L52.581 49.0324L52.4749 48.9264L49.8092 46.2606L49.6903 46.1417L49.5857 46.2733C48.6097 47.5006 47.5003 48.6111 46.2731 49.5859L46.1414 49.6905L46.2603 49.8094L48.9261 52.4752L49.0322 52.5813L49.1382 52.4752L52.4749 49.1385ZM53.3682 38.672L53.3196 38.8596H53.5134H59.3238H59.4777L59.4738 38.7058C59.3327 33.204 58.3129 28.3727 56.7925 24.181L56.7481 24.0586L56.6207 24.0853C55.2835 24.3658 53.8393 24.6181 52.2899 24.8372L52.0907 24.8653L52.1745 25.0482C53.3634 27.6426 54.0436 30.5142 54.0436 33.5483C54.0436 35.3186 53.7939 37.0299 53.3682 38.672ZM69.2458 16.7059L69.373 16.6132L69.2744 16.4906C63.2558 9.01082 54.4375 3.88022 44.4213 2.6989L43.9048 2.63799L44.3096 2.9646C48.2031 6.1067 54.2369 12.0918 58.1006 21.2712L58.1507 21.3901L58.2757 21.3584C64.3657 19.8131 67.773 17.7781 69.2458 16.7059ZM41.3786 3.57685L41.1404 3.40364V3.69817V14.422V14.5229L41.2339 14.5609C45.2288 16.1851 48.5891 19.0338 50.868 22.6401L50.919 22.7208L51.0137 22.7088C52.7086 22.4929 54.2788 22.2368 55.7177 21.9431L55.8987 21.9061L55.8254 21.7366C51.5646 11.8853 44.7059 5.99627 41.3786 3.57685ZM35.6227 2.97394L36.0334 2.64537L35.5112 2.70788C25.5226 3.90361 16.7288 9.02877 10.7219 16.493L10.6233 16.6155L10.7503 16.7082C11.8836 17.535 14.1496 18.9317 17.8782 20.228L17.9744 20.2614L18.041 20.1844C19.9728 17.9477 22.3748 16.1365 25.0968 14.8978L25.1383 14.8789L25.1623 14.8401C28.6598 9.18199 32.7204 5.29622 35.6227 2.97394ZM38.8596 3.69302V3.39979L38.6219 3.57139C36.3688 5.19732 32.5005 8.40411 28.9251 13.3247L28.6915 13.6461L29.0792 13.5593C30.521 13.2363 32.0119 13.0532 33.5483 13.0532C35.3186 13.0532 37.0299 13.3029 38.672 13.7285L38.8596 13.7772V13.5833V3.69302ZM9.38053 18.5336L9.25661 18.4426L9.1687 18.5687C5.15919 24.3208 2.71822 31.2388 2.46303 38.7048L2.45773 38.8599H2.61294H13.5833H13.7772L13.7285 38.6723C13.3029 37.0301 13.0532 35.3189 13.0532 33.5485C13.0532 29.4062 14.2983 25.5519 16.4197 22.3253L16.5233 22.1678L16.3465 22.1023C12.82 20.7961 10.5923 19.4232 9.38053 18.5336ZM2.61294 41.1404H2.45773L2.46303 41.2955C2.71822 48.7601 5.15783 55.6757 9.16599 61.4264L9.25411 61.5528L9.37811 61.4613C11.0358 60.2382 14.5809 58.1095 20.8119 56.4962L20.9697 56.4554L20.9159 56.3015C20.0051 53.6997 19.2747 50.8663 18.8025 47.7839L18.7953 47.737L18.7626 47.7028C16.9818 45.8438 15.5459 43.656 14.5623 41.2339L14.5243 41.1404H14.4233H2.61294ZM10.7461 63.2842L10.6198 63.377L10.718 63.4991C16.7184 70.9609 25.503 76.0861 35.484 77.2883L36.0088 77.3515L35.5954 77.0221C31.6743 73.8972 25.6628 67.9615 21.8328 58.722L21.7831 58.6022L21.6574 58.634C15.5722 60.1739 12.2072 62.2105 10.7461 63.2842ZM38.6216 76.4233L38.8596 76.5959V76.3018V56.787V56.6351L38.7078 56.637C32.8916 56.7095 28.1184 57.2639 24.258 58.0439L24.0766 58.0805L24.1499 58.2503C28.4083 68.1134 35.2891 74.0063 38.6216 76.4233ZM38.7118 54.3563L38.8599 54.3545V54.2063V53.5134V53.3196L38.6723 53.3682C37.0301 53.7939 35.3189 54.0436 33.5485 54.0436C29.2101 54.0436 25.1883 52.6796 21.8715 50.3699L21.5546 50.1491L21.6395 50.5259C22.059 52.3874 22.5794 54.1485 23.1806 55.8071L23.225 55.9295L23.3525 55.9028C27.4465 55.043 32.5154 54.4323 38.7118 54.3563ZM41.2338 52.5345L41.1404 52.5725V52.6734V52.6735V52.6737V52.6746V52.6779V52.6907V52.7395L41.1403 52.9138L41.1403 53.4425L41.1402 53.9712L41.1402 54.0595L40.9233 54.0568L41.184 54.3175C41.2226 54.3262 41.2577 54.3248 41.2887 54.3177L41.2882 54.3614C43.4155 54.3885 45.487 54.4799 47.4913 54.6385L47.8968 54.6705L47.6092 54.3829L44.315 51.0887L44.2318 51.0055L44.1312 51.0665C43.2068 51.6268 42.2436 52.1236 41.2338 52.5345ZM41.2923 56.6422L41.1404 56.6402V56.7921V76.3043V76.5976L41.3782 76.4259C44.3574 74.2741 50.17 69.3495 54.396 61.3186L54.4474 61.2208L54.3693 61.1427L50.479 57.2524L50.4422 57.2156L50.3905 57.2095C47.5214 56.8709 44.4672 56.6834 41.2923 56.6422ZM44.3838 77.0247L43.9727 77.3534L44.4953 77.2908C51.3306 76.4721 57.6049 73.8149 62.81 69.8236L62.9458 69.7195L62.8248 69.5985L56.2763 63.05L56.1349 62.9086L56.0387 63.084C52.3204 69.8713 47.6307 74.4286 44.3838 77.0247ZM64.6141 68.1629L64.7137 68.2625L64.8194 68.1693C66.0047 67.1238 67.1238 66.0047 68.1693 64.8194L68.2625 64.7137L68.1629 64.6141L54.2996 50.7508L54.1936 50.6447L54.0875 50.7508L50.7508 54.0875L50.6447 54.1936L50.7508 54.2996L64.6141 68.1629ZM66.4476 69.7719L66.3287 69.8776L66.4412 69.99L73.285 76.8339C73.7594 77.3083 74.3899 77.5693 75.0594 77.5693C76.4443 77.5693 77.5693 76.4443 77.5693 75.0594C77.5693 74.3899 77.3085 73.7597 76.8339 73.285L69.99 66.4412L69.8776 66.3287L69.7719 66.4476C68.7293 67.62 67.62 68.7293 66.4476 69.7719ZM15.3339 33.5485C15.3339 43.5927 23.5044 51.7631 33.5485 51.7631C43.5927 51.7631 51.7631 43.5927 51.7631 33.5485C51.7631 23.5044 43.5927 15.3339 33.5485 15.3339C23.5044 15.3339 15.3339 23.5044 15.3339 33.5485Z" fill="#38A9ED" stroke="white" stroke-width="0.3"/>
<path d="M38.7702 45.504L38.8599 45.4646V45.3666V42.5808C38.8599 39.6515 36.4779 37.2694 33.5485 37.2694C30.6192 37.2694 28.2371 39.6515 28.2371 42.5808V45.3666V45.4646L28.3268 45.504C29.927 46.2062 31.692 46.6019 33.5485 46.6019C35.405 46.6019 37.17 46.2062 38.7702 45.504ZM41.1403 43.8465V44.1475L41.3807 43.9663C44.5426 41.5821 46.6017 37.8069 46.6017 33.5484C46.6017 26.3507 40.7462 20.4952 33.5485 20.4952C26.3506 20.4952 20.495 26.3507 20.495 33.5484C20.495 37.8072 22.5542 41.5821 25.7161 43.9663L25.9564 44.1475V43.8465V42.5808C25.9564 39.4019 27.9237 36.676 30.7042 35.547L31.0087 35.4234L30.7158 35.2743C28.6661 34.2312 27.2468 32.1259 27.2468 29.6776C27.2468 26.2029 30.0736 23.3758 33.5482 23.3758C37.0229 23.3758 39.85 26.2029 39.85 29.6776C39.85 32.1262 38.4307 34.2312 36.3809 35.2743L36.088 35.4234L36.3925 35.547C39.1731 36.6758 41.1403 39.4016 41.1403 42.5808V43.8465ZM18.2146 33.5486C18.2146 25.0933 25.0932 18.2145 33.5485 18.2145C42.0039 18.2145 48.8824 25.093 48.8824 33.5484C48.8824 42.0037 42.0039 48.8823 33.5485 48.8823C25.0932 48.8823 18.2146 42.004 18.2146 33.5486ZM33.5485 25.6565C31.3315 25.6565 29.5275 27.4606 29.5275 29.6776C29.5275 31.8946 31.3315 33.6986 33.5485 33.6986C35.7655 33.6986 37.5696 31.8946 37.5696 29.6776C37.5696 27.4606 35.7655 25.6565 33.5485 25.6565Z" fill="#38A9ED" stroke="white" stroke-width="0.3"/>
</g>
<defs>
<clipPath id="clip0_56_178">
<rect width="80" height="80" fill="white"/>
</clipPath>
</defs>
</svg>
