<svg width="80" height="81" viewBox="0 0 80 81" fill="none" xmlns="http://www.w3.org/2000/svg">
<path fill-rule="evenodd" clip-rule="evenodd" d="M8 16.4138V58.4138H72V16.4138H8ZM70 18.4138H10V56.4138H70V18.4138Z" fill="#38A9ED"/>
<path fill-rule="evenodd" clip-rule="evenodd" d="M4 17.4138C4 14.6524 6.23858 12.4138 9 12.4138H71C73.7614 12.4138 76 14.6524 76 17.4138V60.4138H79C79.5523 60.4138 80 60.8615 80 61.4138V62.4138C80 65.7275 77.3137 68.4138 74 68.4138H6C2.68629 68.4138 0 65.7275 0 62.4138V61.4138C0 60.8615 0.447715 60.4138 1 60.4138H4V17.4138ZM2 62.4138C2 64.623 3.79086 66.4138 6 66.4138H74C76.2091 66.4138 78 64.623 78 62.4138H49.4649C48.7733 63.6094 47.4806 64.4138 46 64.4138H34C32.5194 64.4138 31.2267 63.6094 30.5351 62.4138H2ZM74 60.4138H48C48 61.5184 47.1046 62.4138 46 62.4138H34C32.8954 62.4138 32 61.5184 32 60.4138H6V17.4138C6 15.757 7.34315 14.4138 9 14.4138H71C72.6569 14.4138 74 15.757 74 17.4138V60.4138Z" fill="#38A9ED"/>
<path d="M18.25 33.1641V27.9141M28.75 26.4141V32.4141C28.75 33.4086 28.3549 34.3625 27.6517 35.0657C26.9484 35.769 25.9946 36.1641 25 36.1641H19C18.0054 36.1641 17.0516 35.769 16.3483 35.0657C15.6451 34.3625 15.25 33.4086 15.25 32.4141V26.4141C15.25 25.4195 15.6451 24.4657 16.3483 23.7624C17.0516 23.0592 18.0054 22.6641 19 22.6641H25C25.9946 22.6641 26.9484 23.0592 27.6517 23.7624C28.3549 24.4657 28.75 25.4195 28.75 26.4141Z" stroke="#38A9ED" stroke-width="1.5" stroke-linecap="round" stroke-linejoin="round"/>
<path d="M21.25 33.1641V30.7266M21.25 30.7266V27.9141M21.25 30.7266C21.25 27.9141 25.75 27.9141 25.75 30.7266V33.1641M18.25 25.6716L18.2575 25.6633" stroke="#38A9ED" stroke-width="1.5" stroke-linecap="round" stroke-linejoin="round"/>
<line x1="15" y1="43.9141" x2="45" y2="43.9141" stroke="#38A9ED"/>
<line x1="15" y1="46.9141" x2="45" y2="46.9141" stroke="#38A9ED"/>
<line x1="15" y1="49.9141" x2="45" y2="49.9141" stroke="#38A9ED"/>
<line x1="15" y1="52.9141" x2="45" y2="52.9141" stroke="#38A9ED"/>
<line x1="36" y1="24.9141" x2="66" y2="24.9141" stroke="#38A9ED"/>
<line x1="36" y1="27.9141" x2="66" y2="27.9141" stroke="#38A9ED"/>
<line x1="36" y1="30.9141" x2="66" y2="30.9141" stroke="#38A9ED"/>
<line x1="36" y1="33.9141" x2="66" y2="33.9141" stroke="#38A9ED"/>
</svg>
