<svg width="80" height="81" viewBox="0 0 80 81" fill="none" xmlns="http://www.w3.org/2000/svg">
<path fill-rule="evenodd" clip-rule="evenodd" d="M53 25.4138C56.866 25.4138 60 22.2798 60 18.4138C60 14.5478 56.866 11.4138 53 11.4138C49.134 11.4138 46 14.5478 46 18.4138C46 22.2798 49.134 25.4138 53 25.4138ZM53 23.4138C55.7614 23.4138 58 21.1752 58 18.4138C58 15.6524 55.7614 13.4138 53 13.4138C50.2386 13.4138 48 15.6524 48 18.4138C48 21.1752 50.2386 23.4138 53 23.4138Z" fill="#38A9ED"/>
<path fill-rule="evenodd" clip-rule="evenodd" d="M37.2444 15.5197L27 12.3676L6.35323 18.7204C2.5769 19.8824 0 23.3714 0 27.3224V68.7678L27 60.4601L53 68.4601L73.6468 62.1072C77.4231 60.9453 80 57.4563 80 53.5052V12.0599L68.7556 15.5197C67.431 8.07152 60.8809 2.41382 53 2.41382C45.1191 2.41382 38.569 8.07155 37.2444 15.5197ZM59.5173 33.8433C63.4363 29.5139 67 23.9643 67 18.3013C67 10.6447 60.7453 4.41382 53 4.41382C45.2547 4.41382 39 10.6447 39 18.3013C39 23.9643 42.5637 29.5139 46.4827 33.8433C48.4051 35.9669 50.3336 37.71 51.7832 38.9226C52.2441 39.3081 52.655 39.6387 53 39.9096C53.345 39.6387 53.7559 39.3081 54.2168 38.9226C55.6664 37.71 57.5949 35.9669 59.5173 33.8433ZM54 41.666C57.5018 38.9534 69 29.2153 69 18.3013C69 18.0469 68.994 17.794 68.9821 17.5425L78 14.7678V53.5052C78 56.5783 75.9957 59.2919 73.0586 60.1957L54 66.0599V41.666ZM52 41.666V66.0599L28 58.6752V14.7678L37.0179 17.5425C37.006 17.794 37 18.0469 37 18.3013C37 29.2153 48.4982 38.9534 52 41.666ZM26 58.6752V14.7678L6.9414 20.632C4.00426 21.5357 2 24.2494 2 27.3224V66.0599L26 58.6752Z" fill="#38A9ED"/>
</svg>
